# xmcd
#
# Track frame offsets: 
#        150
#        27519
#        47327
#        73298
#        107467
#        139045
#        169477
#        198569
#        219244
#        248228
#
# Disc length: 3402 seconds
#
# Revision: 1
# Processed by: cddbd v1.5.2PL0 Copyright (c) Steve Scherf et al.
# Submitted via: ExactAudioCopy v1.0b3
#
DISCID=910d480a
DTITLE=Voivod - Target Earth
DYEAR=2012
DGENRE=Metal
TTITLE0=Target Earth
TTITLE1=Kluskap OKom
TTITLE2=Empathy for the Enemy
TTITLE3=Mechanical Mind
TTITLE4=Warchaic
TTITLE5=Resistance
TTITLE6=Kaleidos
TTITLE7=Corps Etranger
TTITLE8=Artefact
TTITLE9=Defiance
EXTD=
EXTT0=
EXTT1=
EXTT2=
EXTT3=
EXTT4=
EXTT5=
EXTT6=
EXTT7=
EXTT8=
EXTT9=
PLAYORDER=
